<svg xmlns="http://www.w3.org/2000/svg" width="1400" height="640" viewBox="0 0 1400 640" role="img" aria-labelledby="title desc">
  <title id="title">Pi-hole Multi-Dashboard overview</title>
  <desc id="desc">Dashboard overview with aggregate metrics and three online Pi-hole cards.</desc>
  <defs>
    <style>
      .bg{fill:#111516}.top{fill:#0f1415;stroke:#314145}.panel{fill:#182022;stroke:#314145}.panel2{fill:#20292b}.text{fill:#edf4f2;font:600 16px system-ui}.muted{fill:#9aaba7;font:12px system-ui}.label{fill:#9aaba7;font:700 10px system-ui;letter-spacing:1px}.green{fill:#39d98a}.red{fill:#f97373}.blue{fill:#4c9ffe}.amber{fill:#f5b642}.violet{fill:#a78bfa}.line{fill:none;stroke-width:3}.grid{stroke:#314145;stroke-width:.8;opacity:.65}
    </style>
  </defs>
  <rect class="bg" width="1400" height="640"/>
  <rect class="top" width="1400" height="52"/>
  <rect x="14" y="8" width="36" height="36" rx="8" fill="#182022"/>
  <text x="23" y="31" fill="#39d98a" font="700 16px system-ui">Pi</text>
  <text class="text" x="64" y="24">Pi-hole Multi-Dashboard</text>
  <text class="muted" x="64" y="40">3 of 3 servers online</text>
  <circle class="green" cx="1098" cy="26" r="4"/>
  <text class="muted" x="1112" y="31">Next refresh in 2s</text>
  <rect class="green" x="1208" y="8" width="58" height="36" rx="7"/>
  <text x="1222" y="31" fill="#06110d" font="700 14px system-ui">Auto</text>
  <rect class="panel" x="1276" y="8" width="76" height="36" rx="7"/>
  <text class="text" x="1290" y="31">Refresh</text>

  <g transform="translate(102,78)">
    <g><rect class="panel" width="194" height="70" rx="6"/><text class="label" x="14" y="25">TOTAL QUERIES</text><text class="green" x="14" y="52" font="700 26px system-ui">213.2K</text></g>
    <g transform="translate(216)"><rect class="panel" width="194" height="70" rx="6"/><text class="label" x="14" y="25">BLOCKED</text><text class="red" x="14" y="52" font="700 26px system-ui">35.5K</text></g>
    <g transform="translate(432)"><rect class="panel" width="194" height="70" rx="6"/><text class="label" x="14" y="25">BLOCK RATE</text><text class="blue" x="14" y="52" font="700 26px system-ui">16.7%</text></g>
    <g transform="translate(648)"><rect class="panel" width="194" height="70" rx="6"/><text class="label" x="14" y="25">DOMAINS</text><text class="violet" x="14" y="52" font="700 26px system-ui">621.9K</text></g>
    <g transform="translate(864)"><rect class="panel" width="194" height="70" rx="6"/><text class="label" x="14" y="25">FORWARDED</text><text class="amber" x="14" y="52" font="700 26px system-ui">47.4K</text></g>
    <g transform="translate(1080)"><rect class="panel" width="194" height="70" rx="6"/><text class="label" x="14" y="25">CLIENTS</text><text class="text" x="14" y="52" font-size="26">138</text></g>
  </g>

  <rect class="panel" x="102" y="170" width="1274" height="38" rx="6"/>
  <rect class="panel2" x="106" y="174" width="402" height="30" rx="5"/>
  <text class="text" x="276" y="195">Overview</text><text class="muted" x="676" y="195">Top Lists</text><text class="muted" x="1076" y="195">Compare</text>

  <g transform="translate(102,230)">
    <g>
      <rect class="panel" width="394" height="390" rx="6"/><text class="text" x="16" y="28">Primary Pi-hole</text><text class="muted" x="16" y="46">https://192.168.1.9 · API v6</text><rect fill="#0f5132" x="344" y="20" width="44" height="20" rx="10"/><text class="green" x="352" y="34" font="700 10px system-ui">Online</text><line class="grid" x1="0" y1="62" x2="394" y2="62"/>
      <rect class="panel2" x="16" y="82" width="172" height="60" rx="6"/><text class="label" x="28" y="110">QUERIES</text><text class="green" x="28" y="132" font="700 20px system-ui">175.5K</text><rect class="panel2" x="204" y="82" width="172" height="60" rx="6"/><text class="label" x="216" y="110">BLOCKED</text><text class="red" x="216" y="132" font="700 20px system-ui">32.2K</text>
      <rect class="panel2" x="16" y="154" width="172" height="60" rx="6"/><text class="label" x="28" y="182">RATE</text><text class="blue" x="28" y="204" font="700 20px system-ui">18.3%</text><rect class="panel2" x="204" y="154" width="172" height="60" rx="6"/><text class="label" x="216" y="182">CACHE</text><text class="amber" x="216" y="204" font="700 20px system-ui">110.3K</text>
      <text class="muted" x="16" y="245">Blocked Traffic</text><text class="text" x="350" y="245" font-size="12">18.3%</text><rect x="16" y="254" width="360" height="8" fill="#edf4f2" rx="4"/><rect class="green" x="16" y="254" width="66" height="8" rx="4"/>
      <g transform="translate(16,292)"><line class="grid" x1="0" y1="0" x2="360" y2="0"/><line class="grid" x1="0" y1="44" x2="360" y2="44"/><line class="grid" x1="0" y1="88" x2="360" y2="88"/><polyline class="line green" points="0,28 18,58 38,40 58,18 78,55 98,43 118,74 138,58 158,70 178,50 198,42 218,62 238,38 258,74 278,88 298,82 318,90 340,76 360,116"/><polyline class="line red" points="0,18 18,42 38,28 58,52 78,38 98,62 118,44 138,70 158,52 178,66 198,46 218,58 238,24 258,60 278,78 298,76 318,86 340,70 360,118"/></g>
    </g>
    <g transform="translate(410)">
      <rect class="panel" width="394" height="390" rx="6"/><text class="text" x="16" y="28">Pi-hole 118</text><text class="muted" x="16" y="46">https://192.168.1.118 · API v6</text><rect fill="#0f5132" x="344" y="20" width="44" height="20" rx="10"/><text class="green" x="352" y="34" font="700 10px system-ui">Online</text><line class="grid" x1="0" y1="62" x2="394" y2="62"/><rect class="panel2" x="16" y="82" width="172" height="60" rx="6"/><text class="label" x="28" y="110">QUERIES</text><text class="green" x="28" y="132" font="700 20px system-ui">27.3K</text><rect class="panel2" x="204" y="82" width="172" height="60" rx="6"/><text class="label" x="216" y="110">BLOCKED</text><text class="red" x="216" y="132" font="700 20px system-ui">2.7K</text><rect class="panel2" x="16" y="154" width="172" height="60" rx="6"/><text class="label" x="28" y="182">RATE</text><text class="blue" x="28" y="204" font="700 20px system-ui">9.7%</text><rect class="panel2" x="204" y="154" width="172" height="60" rx="6"/><text class="label" x="216" y="182">CACHE</text><text class="amber" x="216" y="204" font="700 20px system-ui">13.0K</text><text class="muted" x="16" y="245">Blocked Traffic</text><text class="text" x="352" y="245" font-size="12">9.7%</text><rect x="16" y="254" width="360" height="8" fill="#edf4f2" rx="4"/><rect class="green" x="16" y="254" width="35" height="8" rx="4"/><g transform="translate(16,292)"><line class="grid" x1="0" y1="0" x2="360" y2="0"/><line class="grid" x1="0" y1="44" x2="360" y2="44"/><line class="grid" x1="0" y1="88" x2="360" y2="88"/><polyline class="line blue" points="0,20 20,48 40,38 60,74 80,28 100,82 120,26 140,68 160,38 180,72 200,50 220,30 240,80 260,36 280,86 300,42 320,74 340,38 360,102"/><polyline class="line red" points="0,62 20,34 40,80 60,36 80,90 100,20 120,72 140,40 160,86 180,56 200,74 220,62 240,34 260,76 280,42 300,90 320,40 340,82 360,118"/></g>
    </g>
    <g transform="translate(820)">
      <rect class="panel" width="394" height="390" rx="6"/><text class="text" x="16" y="28">Pi-hole 119</text><text class="muted" x="16" y="46">https://192.168.1.119 · API v6</text><rect fill="#0f5132" x="344" y="20" width="44" height="20" rx="10"/><text class="green" x="352" y="34" font="700 10px system-ui">Online</text><line class="grid" x1="0" y1="62" x2="394" y2="62"/><rect class="panel2" x="16" y="82" width="172" height="60" rx="6"/><text class="label" x="28" y="110">QUERIES</text><text class="green" x="28" y="132" font="700 20px system-ui">10.4K</text><rect class="panel2" x="204" y="82" width="172" height="60" rx="6"/><text class="label" x="216" y="110">BLOCKED</text><text class="red" x="216" y="132" font="700 20px system-ui">719</text><rect class="panel2" x="16" y="154" width="172" height="60" rx="6"/><text class="label" x="28" y="182">RATE</text><text class="blue" x="28" y="204" font="700 20px system-ui">6.9%</text><rect class="panel2" x="204" y="154" width="172" height="60" rx="6"/><text class="label" x="216" y="182">CACHE</text><text class="amber" x="216" y="204" font="700 20px system-ui">4.2K</text><text class="muted" x="16" y="245">Blocked Traffic</text><text class="text" x="352" y="245" font-size="12">6.9%</text><rect x="16" y="254" width="360" height="8" fill="#edf4f2" rx="4"/><rect class="green" x="16" y="254" width="25" height="8" rx="4"/><g transform="translate(16,292)"><line class="grid" x1="0" y1="0" x2="360" y2="0"/><line class="grid" x1="0" y1="44" x2="360" y2="44"/><line class="grid" x1="0" y1="88" x2="360" y2="88"/><polyline class="line violet" points="0,48 20,72 40,82 60,86 80,72 100,88 120,76 140,84 160,70 180,84 200,36 220,82 240,76 260,86 280,78 300,80 320,70 340,92 360,94"/><polyline class="line red" points="0,30 20,82 40,56 60,88 80,48 100,92 120,48 140,94 160,50 180,92 200,20 220,94 240,48 260,88 280,48 300,90 320,48 340,88 360,112"/></g>
    </g>
  </g>
</svg>
